<mxfile host="app.diagrams.net" modified="2021-11-14T18:25:44.114Z" agent="5.0 (Macintosh; Intel Mac OS X 10_15_7) AppleWebKit/537.36 (KHTML, like Gecko) Chrome/95.0.4638.69 Safari/537.36" etag="lUTSPlQnMmHa548OPybJ" version="15.7.3" type="github">
  <diagram id="G3Ok1qQkHheCiiaqgz5A" name="Page-1">
    <mxGraphModel dx="1306" dy="812" grid="1" gridSize="10" guides="1" tooltips="1" connect="1" arrows="1" fold="1" page="1" pageScale="1" pageWidth="850" pageHeight="1100" math="0" shadow="0">
      <root>
        <mxCell id="0" />
        <mxCell id="1" parent="0" />
        <mxCell id="b29jH7kIfdYciFvpikc0-3" value="" style="edgeStyle=orthogonalEdgeStyle;rounded=0;orthogonalLoop=1;jettySize=auto;html=1;" parent="1" source="b29jH7kIfdYciFvpikc0-1" target="b29jH7kIfdYciFvpikc0-2" edge="1">
          <mxGeometry relative="1" as="geometry" />
        </mxCell>
        <mxCell id="b29jH7kIfdYciFvpikc0-5" value="" style="edgeStyle=orthogonalEdgeStyle;rounded=0;orthogonalLoop=1;jettySize=auto;html=1;" parent="1" source="b29jH7kIfdYciFvpikc0-1" target="b29jH7kIfdYciFvpikc0-4" edge="1">
          <mxGeometry relative="1" as="geometry" />
        </mxCell>
        <mxCell id="b29jH7kIfdYciFvpikc0-7" value="" style="edgeStyle=orthogonalEdgeStyle;rounded=0;orthogonalLoop=1;jettySize=auto;html=1;" parent="1" source="b29jH7kIfdYciFvpikc0-1" target="b29jH7kIfdYciFvpikc0-6" edge="1">
          <mxGeometry relative="1" as="geometry" />
        </mxCell>
        <mxCell id="b29jH7kIfdYciFvpikc0-10" value="" style="edgeStyle=orthogonalEdgeStyle;rounded=0;orthogonalLoop=1;jettySize=auto;html=1;" parent="1" source="b29jH7kIfdYciFvpikc0-1" target="b29jH7kIfdYciFvpikc0-9" edge="1">
          <mxGeometry relative="1" as="geometry">
            <Array as="points">
              <mxPoint x="260" y="250" />
              <mxPoint x="260" y="390" />
            </Array>
          </mxGeometry>
        </mxCell>
        <mxCell id="b29jH7kIfdYciFvpikc0-16" value="" style="edgeStyle=orthogonalEdgeStyle;rounded=0;orthogonalLoop=1;jettySize=auto;html=1;" parent="1" source="b29jH7kIfdYciFvpikc0-1" edge="1">
          <mxGeometry relative="1" as="geometry">
            <mxPoint x="350" y="130" as="targetPoint" />
          </mxGeometry>
        </mxCell>
        <mxCell id="b29jH7kIfdYciFvpikc0-1" value="&lt;div&gt;Homepage:&lt;/div&gt;&lt;div&gt;exhibits &lt;br&gt;&lt;/div&gt;&lt;div&gt;(teaser of current)&lt;br&gt;&lt;/div&gt;" style="rounded=1;whiteSpace=wrap;html=1;" parent="1" vertex="1">
          <mxGeometry x="300" y="180" width="100" height="90" as="geometry" />
        </mxCell>
        <mxCell id="b29jH7kIfdYciFvpikc0-2" value="&lt;div&gt;Create exhibit:&lt;/div&gt;&lt;div&gt;Add images&lt;/div&gt;&lt;div&gt;Add descriptions&lt;/div&gt;&lt;div&gt;Add genre tags&lt;br&gt;&lt;/div&gt;" style="whiteSpace=wrap;html=1;rounded=1;" parent="1" vertex="1">
          <mxGeometry x="470" y="187.25" width="120" height="74.5" as="geometry" />
        </mxCell>
        <mxCell id="b29jH7kIfdYciFvpikc0-4" value="Site About &amp;amp; contact page" style="whiteSpace=wrap;html=1;rounded=1;" parent="1" vertex="1">
          <mxGeometry x="110" y="140" width="120" height="60" as="geometry" />
        </mxCell>
        <mxCell id="b29jH7kIfdYciFvpikc0-12" value="" style="edgeStyle=orthogonalEdgeStyle;rounded=0;orthogonalLoop=1;jettySize=auto;html=1;exitX=1;exitY=0.647;exitDx=0;exitDy=0;exitPerimeter=0;" parent="1" source="b29jH7kIfdYciFvpikc0-6" target="b29jH7kIfdYciFvpikc0-11" edge="1">
          <mxGeometry relative="1" as="geometry" />
        </mxCell>
        <mxCell id="b29jH7kIfdYciFvpikc0-6" value="&lt;div&gt;Upcoming exhibits:&lt;/div&gt;&lt;div&gt;List of exhibits&lt;/div&gt;&lt;div&gt;(Link to Edit &amp;amp; Delete)&lt;br&gt;&lt;/div&gt;" style="whiteSpace=wrap;html=1;rounded=1;" parent="1" vertex="1">
          <mxGeometry x="290" y="405" width="120" height="85" as="geometry" />
        </mxCell>
        <mxCell id="b29jH7kIfdYciFvpikc0-8" value="" style="endArrow=classic;html=1;rounded=0;entryX=1.014;entryY=0.405;entryDx=0;entryDy=0;entryPerimeter=0;exitX=0.5;exitY=1;exitDx=0;exitDy=0;" parent="1" source="b29jH7kIfdYciFvpikc0-2" target="b29jH7kIfdYciFvpikc0-6" edge="1">
          <mxGeometry width="50" height="50" relative="1" as="geometry">
            <mxPoint x="490" y="400" as="sourcePoint" />
            <mxPoint x="540" y="350" as="targetPoint" />
            <Array as="points">
              <mxPoint x="530" y="350" />
            </Array>
          </mxGeometry>
        </mxCell>
        <mxCell id="b29jH7kIfdYciFvpikc0-9" value="&lt;div&gt;Promoted&lt;/div&gt;&lt;div&gt;Exhibit:&lt;/div&gt;&lt;div&gt;Complete exhibit of work&lt;br&gt;&lt;/div&gt;" style="whiteSpace=wrap;html=1;rounded=1;" parent="1" vertex="1">
          <mxGeometry x="70" y="325" width="120" height="80" as="geometry" />
        </mxCell>
        <mxCell id="b29jH7kIfdYciFvpikc0-13" style="edgeStyle=orthogonalEdgeStyle;rounded=0;orthogonalLoop=1;jettySize=auto;html=1;entryX=0.808;entryY=1.004;entryDx=0;entryDy=0;exitX=0;exitY=1;exitDx=0;exitDy=0;entryPerimeter=0;" parent="1" source="b29jH7kIfdYciFvpikc0-11" target="b29jH7kIfdYciFvpikc0-6" edge="1">
          <mxGeometry relative="1" as="geometry">
            <Array as="points">
              <mxPoint x="580" y="490" />
              <mxPoint x="580" y="510" />
              <mxPoint x="387" y="510" />
            </Array>
          </mxGeometry>
        </mxCell>
        <mxCell id="b29jH7kIfdYciFvpikc0-11" value="Edit or Delete Exhibits" style="whiteSpace=wrap;html=1;rounded=1;" parent="1" vertex="1">
          <mxGeometry x="530" y="430" width="120" height="60" as="geometry" />
        </mxCell>
        <mxCell id="b29jH7kIfdYciFvpikc0-17" style="edgeStyle=orthogonalEdgeStyle;rounded=0;orthogonalLoop=1;jettySize=auto;html=1;entryX=0.5;entryY=0;entryDx=0;entryDy=0;" parent="1" source="b29jH7kIfdYciFvpikc0-15" target="b29jH7kIfdYciFvpikc0-2" edge="1">
          <mxGeometry relative="1" as="geometry" />
        </mxCell>
        <mxCell id="b29jH7kIfdYciFvpikc0-15" value="&lt;div&gt;Concept:&lt;/div&gt;&lt;div&gt;User accounts&lt;/div&gt;&lt;div&gt;creation&lt;br&gt;&lt;/div&gt;" style="rhombus;whiteSpace=wrap;html=1;rounded=1;" parent="1" vertex="1">
          <mxGeometry x="280" y="20" width="140" height="115" as="geometry" />
        </mxCell>
      </root>
    </mxGraphModel>
  </diagram>
</mxfile>
